<svg xmlns="http://www.w3.org/2000/svg" viewBox="0 0 64 64"><defs><style>.cls-1{fill:#fff;}.cls-2{fill:gray;}</style></defs><title>Asset 1</title><g id="Layer_2" data-name="Layer 2"><g id="Layer_1-2" data-name="Layer 1"><rect class="cls-1" x="2.5" y="2.5" width="59" height="59" rx="12.5"/><path class="cls-2" d="M49,5A10,10,0,0,1,59,15V49A10,10,0,0,1,49,59H15A10,10,0,0,1,5,49V15A10,10,0,0,1,15,5H49m0-5H15A15,15,0,0,0,0,15V49A15,15,0,0,0,15,64H49A15,15,0,0,0,64,49V15A15,15,0,0,0,49,0Z"/></g></g></svg>